Rounders is a 1998 film about the underground world of high-stakes poker. Directed by John Dahl and starring Matt Damon and Edward Norton, the movie follows two friends who need to quickly earn enough cash playing poker to pay off a huge debt. The term "rounder" refers to a person whose primary means of earning a living is by playing cards.

 
http://img819.imageshack.us/img819/6351/vlcsnap2010071106h34m14.png 
http://img576.imageshack.us/img576/4971/vlcsnap2010071106h34m42.png 
http://img267.imageshack.us/img267/888/vlcsnap2010071106h36m43.png 
http://img31.imageshack.us/img31/9367/vlcsnap2010071106h33m08.png 
http://img31.imageshack.us/img31/883/vlcsnap2010071106h33m01.png 
http://img40.imageshack.us/img40/7818/vlcsnap2010071106h32m51.png
 
http://www.imdb.com/title/tt0128442/
General


Complete name : Rounders DVDrip.mp4
Format : MPEG-4
Format profile : Base Media / Version 2
Codec ID : mp42
File size : 500 MiB
Duration : 2h 0mn
Overall bit rate : 580 Kbps
Encoded date : UTC 2010-07-11 02:13:08
Tagged date : UTC 2010-07-11 03:02:18


Video


Format : AVC
Format/Info : Advanced Video Codec
Format profile : Main@L3.0
Format settings, CABAC : Yes
Codec ID : avc1
Codec ID/Info : Advanced Video Coding
Duration : 2h 0mn
Bit rate mode : Variable
Bit rate : 448 Kbps
Width : 480 pixels
Height : 208 pixels
Display aspect ratio : 2.35:1
Frame rate mode : Variable
Frame rate : 23.953 fps
Maximum frame rate : 29.970 fps
Color space : YUV
Chroma subsampling : 4:2:0
Bit depth : 8 bits
Scan type : Progressive
Bits/(Pixel*Frame) : 0.187
Stream size : 386 MiB (77%)
Writing library : x264 core 79
Encoded date : UTC 2010-07-11 02:13:08
Tagged date : UTC 2010-07-11 03:02:18


Audio


Format : AAC
Format/Info : Advanced Audio Codec
Format version : Version 4
Format profile : LC
Format settings, SBR : No
Codec ID : 40
Duration : 2h 0mn
Bit rate mode : Variable
Bit rate : 128 Kbps
Maximum bit rate : 196 Kbps
Channel(s) : 2 channels
Channel positions : Front: L R
Sampling rate : 48.0 KHz
Stream size : 110 MiB (22%)
Language : English
Encoded date : UTC 2010-07-11 02:13:08
Tagged date : UTC 2010-07-11 03:02:18